<svg width="100%" height="100%" id="svg" viewBox="0 0 1440 700" xmlns="http://www.w3.org/2000/svg"
    class="transition duration-300 ease-in-out delay-150">
    <defs>
        <linearGradient id="gradient" x1="79%" y1="9%" x2="21%" y2="91%">
            <stop offset="5%" stop-color="#ffffff"></stop>
            <stop offset="95%" stop-color="#ffffff"></stop>
        </linearGradient>
    </defs>
    <path
        d="M 0,700 C 0,700 0,175 0,175 C 67.82775119617227,213.22966507177034 135.65550239234454,251.45933014354068 246,232 C 356.34449760765546,212.54066985645932 509.2057416267942,135.39234449760764 623,132 C 736.7942583732058,128.60765550239236 811.5215311004785,198.97129186602874 889,206 C 966.4784688995215,213.02870813397126 1046.7081339712918,156.7224880382775 1139,141 C 1231.2918660287082,125.2775119617225 1335.6459330143541,150.13875598086125 1440,175 C 1440,175 1440,700 1440,700 Z"
        stroke="none" stroke-width="0" fill="url(#gradient)" fill-opacity="0.4"
        class="transition-all duration-300 ease-in-out delay-150 path-0"></path>
    <defs>
        <linearGradient id="gradient" x1="79%" y1="9%" x2="21%" y2="91%">
            <stop offset="5%" stop-color="#ffffff"></stop>
            <stop offset="95%" stop-color="#ffffff"></stop>
        </linearGradient>
    </defs>
    <path
        d="M 0,700 C 0,700 0,350 0,350 C 93.70334928229664,313.24401913875596 187.40669856459328,276.4880382775119 275,293 C 362.5933014354067,309.5119617224881 444.07655502392345,379.2918660287081 550,377 C 655.9234449760766,374.7081339712919 786.2870813397129,300.34449760765546 901,297 C 1015.7129186602871,293.65550239234454 1114.7751196172248,361.33014354066984 1202,382 C 1289.2248803827752,402.66985645933016 1364.6124401913876,376.3349282296651 1440,350 C 1440,350 1440,700 1440,700 Z"
        stroke="none" stroke-width="0" fill="url(#gradient)" fill-opacity="0.53"
        class="transition-all duration-300 ease-in-out delay-150 path-1"></path>
    <defs>
        <linearGradient id="gradient" x1="79%" y1="9%" x2="21%" y2="91%">
            <stop offset="5%" stop-color="#ffffff"></stop>
            <stop offset="95%" stop-color="#ffffff"></stop>
        </linearGradient>
    </defs>
    <path
        d="M 0,700 C 0,700 0,525 0,525 C 117.89473684210526,510.24401913875596 235.78947368421052,495.4880382775119 312,483 C 388.2105263157895,470.5119617224881 422.7368421052631,460.2918660287082 523,489 C 623.2631578947369,517.7081339712918 789.2631578947369,585.3444976076555 888,589 C 986.7368421052631,592.6555023923445 1018.2105263157896,532.33014354067 1099,511 C 1179.7894736842104,489.6698564593301 1309.8947368421052,507.334928229665 1440,525 C 1440,525 1440,700 1440,700 Z"
        stroke="none" stroke-width="0" fill="url(#gradient)" fill-opacity="1"
        class="transition-all duration-300 ease-in-out delay-150 path-2"></path>
</svg>